<svg id="visual" viewBox="0 0 900 600" width="900" height="600" xmlns="http://www.w3.org/2000/svg" xmlns:xlink="http://www.w3.org/1999/xlink" version="1.1"><g stroke-width="1" stroke-linejoin="bevel"><path d="M483 298L415 282L437 362Z" fill="#1b1c1e" stroke="#1b1c1e"></path><path d="M437 362L470 369L483 298Z" fill="#1c1e1f" stroke="#1c1e1f"></path><path d="M415 282L335 275L437 362Z" fill="#1d1f21" stroke="#1d1f21"></path><path d="M504 170L386 177L415 282Z" fill="#181919" stroke="#181919"></path><path d="M415 282L386 177L335 275Z" fill="#151515" stroke="#151515"></path><path d="M483 298L504 170L415 282Z" fill="#1b1c1e" stroke="#1b1c1e"></path><path d="M335 275L321 429L437 362Z" fill="#1c1e1f" stroke="#1c1e1f"></path><path d="M437 362L465 505L470 369Z" fill="#1c1e1f" stroke="#1c1e1f"></path><path d="M638 382L619 284L483 298Z" fill="#1b1c1e" stroke="#1b1c1e"></path><path d="M483 298L609 229L504 170Z" fill="#191a1b" stroke="#191a1b"></path><path d="M619 284L609 229L483 298Z" fill="#181919" stroke="#181919"></path><path d="M321 429L465 505L437 362Z" fill="#161616" stroke="#161616"></path><path d="M470 369L638 382L483 298Z" fill="#1c1e1f" stroke="#1c1e1f"></path><path d="M565 507L638 382L470 369Z" fill="#191a1b" stroke="#191a1b"></path><path d="M619 284L698 286L609 229Z" fill="#1a1b1c" stroke="#1a1b1c"></path><path d="M531 105L421 108L504 170Z" fill="#181919" stroke="#181919"></path><path d="M504 170L421 108L386 177Z" fill="#1a1b1c" stroke="#1a1b1c"></path><path d="M386 177L262 165L335 275Z" fill="#1f2224" stroke="#1f2224"></path><path d="M465 505L565 507L470 369Z" fill="#171718" stroke="#171718"></path><path d="M321 429L376 534L465 505Z" fill="#161616" stroke="#161616"></path><path d="M465 505L473 600L565 507Z" fill="#181919" stroke="#181919"></path><path d="M586 128L531 105L504 170Z" fill="#181919" stroke="#181919"></path><path d="M300 101L262 165L386 177Z" fill="#191a1b" stroke="#191a1b"></path><path d="M335 275L208 287L321 429Z" fill="#1b1c1e" stroke="#1b1c1e"></path><path d="M210 224L208 287L335 275Z" fill="#1a1b1c" stroke="#1a1b1c"></path><path d="M321 429L311 529L376 534Z" fill="#1c1e1f" stroke="#1c1e1f"></path><path d="M609 229L586 128L504 170Z" fill="#1b1c1e" stroke="#1b1c1e"></path><path d="M195 482L311 529L321 429Z" fill="#191a1b" stroke="#191a1b"></path><path d="M262 165L210 224L335 275Z" fill="#171718" stroke="#171718"></path><path d="M701 374L698 286L638 382Z" fill="#1c1e1f" stroke="#1c1e1f"></path><path d="M638 382L698 286L619 284Z" fill="#181919" stroke="#181919"></path><path d="M609 229L731 135L586 128Z" fill="#181919" stroke="#181919"></path><path d="M421 108L300 101L386 177Z" fill="#191a1b" stroke="#191a1b"></path><path d="M262 165L207 128L210 224Z" fill="#1f2224" stroke="#1f2224"></path><path d="M297 0L300 101L421 108Z" fill="#1d1f21" stroke="#1d1f21"></path><path d="M696 491L701 374L638 382Z" fill="#181919" stroke="#181919"></path><path d="M100 278L168 364L208 287Z" fill="#1e2122" stroke="#1e2122"></path><path d="M208 287L168 364L321 429Z" fill="#191a1b" stroke="#191a1b"></path><path d="M406 600L465 505L376 534Z" fill="#1b1c1e" stroke="#1b1c1e"></path><path d="M406 600L473 600L465 505Z" fill="#1a1b1c" stroke="#1a1b1c"></path><path d="M565 507L696 491L638 382Z" fill="#1f2224" stroke="#1f2224"></path><path d="M311 529L406 600L376 534Z" fill="#1c1e1f" stroke="#1c1e1f"></path><path d="M787 302L713 224L698 286Z" fill="#1f2224" stroke="#1f2224"></path><path d="M698 286L713 224L609 229Z" fill="#1f2224" stroke="#1f2224"></path><path d="M168 364L195 482L321 429Z" fill="#191a1b" stroke="#191a1b"></path><path d="M311 529L264 600L406 600Z" fill="#1c1e1f" stroke="#1c1e1f"></path><path d="M300 101L207 128L262 165Z" fill="#1d1f21" stroke="#1d1f21"></path><path d="M210 224L100 278L208 287Z" fill="#161616" stroke="#161616"></path><path d="M624 600L696 491L565 507Z" fill="#161616" stroke="#161616"></path><path d="M816 165L731 135L713 224Z" fill="#161616" stroke="#161616"></path><path d="M527 0L436 0L531 105Z" fill="#151515" stroke="#151515"></path><path d="M531 105L436 0L421 108Z" fill="#1a1b1c" stroke="#1a1b1c"></path><path d="M300 101L231 0L207 128Z" fill="#1a1b1c" stroke="#1a1b1c"></path><path d="M527 0L531 105L601 0Z" fill="#161616" stroke="#161616"></path><path d="M601 0L531 105L586 128Z" fill="#161616" stroke="#161616"></path><path d="M195 482L264 600L311 529Z" fill="#1f2224" stroke="#1f2224"></path><path d="M473 600L624 600L565 507Z" fill="#1f2224" stroke="#1f2224"></path><path d="M787 302L698 286L701 374Z" fill="#1e2122" stroke="#1e2122"></path><path d="M713 224L731 135L609 229Z" fill="#1d1f21" stroke="#1d1f21"></path><path d="M106 207L100 278L210 224Z" fill="#161616" stroke="#161616"></path><path d="M168 364L106 400L195 482Z" fill="#1e2122" stroke="#1e2122"></path><path d="M783 396L787 302L701 374Z" fill="#161616" stroke="#161616"></path><path d="M100 278L106 400L168 364Z" fill="#161616" stroke="#161616"></path><path d="M195 482L162 600L264 600Z" fill="#1d1f21" stroke="#1d1f21"></path><path d="M436 0L297 0L421 108Z" fill="#151515" stroke="#151515"></path><path d="M207 128L106 207L210 224Z" fill="#1f2224" stroke="#1f2224"></path><path d="M696 491L783 396L701 374Z" fill="#171718" stroke="#171718"></path><path d="M823 529L783 396L696 491Z" fill="#151515" stroke="#151515"></path><path d="M88 129L106 207L207 128Z" fill="#171718" stroke="#171718"></path><path d="M678 0L601 0L586 128Z" fill="#1d1f21" stroke="#1d1f21"></path><path d="M624 600L690 600L696 491Z" fill="#1c1e1f" stroke="#1c1e1f"></path><path d="M297 0L231 0L300 101Z" fill="#161616" stroke="#161616"></path><path d="M731 135L678 0L586 128Z" fill="#1b1c1e" stroke="#1b1c1e"></path><path d="M111 600L162 600L195 482Z" fill="#161616" stroke="#161616"></path><path d="M0 434L69 461L106 400Z" fill="#1b1c1e" stroke="#1b1c1e"></path><path d="M106 400L69 461L195 482Z" fill="#1b1c1e" stroke="#1b1c1e"></path><path d="M0 309L106 400L100 278Z" fill="#1a1b1c" stroke="#1a1b1c"></path><path d="M114 0L88 129L207 128Z" fill="#1f2224" stroke="#1f2224"></path><path d="M0 203L0 309L100 278Z" fill="#171718" stroke="#171718"></path><path d="M787 302L816 165L713 224Z" fill="#191a1b" stroke="#191a1b"></path><path d="M731 135L790 71L678 0Z" fill="#191a1b" stroke="#191a1b"></path><path d="M900 224L816 165L787 302Z" fill="#1a1b1c" stroke="#1a1b1c"></path><path d="M816 165L790 71L731 135Z" fill="#151515" stroke="#151515"></path><path d="M690 600L823 529L696 491Z" fill="#1f2224" stroke="#1f2224"></path><path d="M783 396L900 275L787 302Z" fill="#1f2224" stroke="#1f2224"></path><path d="M69 461L111 600L195 482Z" fill="#161616" stroke="#161616"></path><path d="M0 203L100 278L106 207Z" fill="#191a1b" stroke="#191a1b"></path><path d="M69 461L0 505L111 600Z" fill="#1b1c1e" stroke="#1b1c1e"></path><path d="M231 0L114 0L207 128Z" fill="#1a1b1c" stroke="#1a1b1c"></path><path d="M88 129L0 203L106 207Z" fill="#1d1f21" stroke="#1d1f21"></path><path d="M0 82L0 203L88 129Z" fill="#1a1b1c" stroke="#1a1b1c"></path><path d="M0 309L0 434L106 400Z" fill="#181919" stroke="#181919"></path><path d="M900 438L900 275L783 396Z" fill="#181919" stroke="#181919"></path><path d="M816 165L900 105L790 71Z" fill="#1b1c1e" stroke="#1b1c1e"></path><path d="M900 275L900 224L787 302Z" fill="#161616" stroke="#161616"></path><path d="M900 0L789 0L790 71Z" fill="#1e2122" stroke="#1e2122"></path><path d="M790 71L789 0L678 0Z" fill="#171718" stroke="#171718"></path><path d="M823 529L900 438L783 396Z" fill="#1d1f21" stroke="#1d1f21"></path><path d="M0 434L0 505L69 461Z" fill="#181919" stroke="#181919"></path><path d="M690 600L835 600L823 529Z" fill="#1b1c1e" stroke="#1b1c1e"></path><path d="M823 529L900 517L900 438Z" fill="#191a1b" stroke="#191a1b"></path><path d="M835 600L900 517L823 529Z" fill="#191a1b" stroke="#191a1b"></path><path d="M114 0L0 82L88 129Z" fill="#171718" stroke="#171718"></path><path d="M900 224L900 105L816 165Z" fill="#1e2122" stroke="#1e2122"></path><path d="M0 505L0 600L111 600Z" fill="#171718" stroke="#171718"></path><path d="M835 600L900 600L900 517Z" fill="#171718" stroke="#171718"></path><path d="M114 0L0 0L0 82Z" fill="#191a1b" stroke="#191a1b"></path><path d="M900 105L900 0L790 71Z" fill="#1f2224" stroke="#1f2224"></path></g></svg>